<?xml version='1.0' encoding='us-ascii'?>
<svg height="18in" viewBox="0.0 0.0 24.0 18.0" width="24in" xmlns="http://www.w3.org/2000/svg" xmlns:cc="http://creativecommons.org/ns#" xmlns:dc="http://purl.org/dc/elements/1.1/" xmlns:inkscape="http://www.inkscape.org/namespaces/inkscape" xmlns:rdf="http://www.w3.org/1999/02/22-rdf-syntax-ns#" xmlns:svg="http://www.w3.org/2000/svg" xmlns:xlink="http://www.w3.org/1999/xlink">

<g id = "box1" style="fill:none;stroke-linecap:round;stroke-linejoin:straight;">
	<path d="M 0.1 0.1 h1.4 v0.25 h1.4 v-0.25 h1.4 v0.25 h1.4 v-0.25 h1.4 
v1.4 h-0.25 v1.4 h0.25 v1.4 h-0.25 v1.4 h0.25 v1.4 
h-1.4 v-0.25 h-1.4 v0.25 h-1.4 v-0.25 h-1.4 v0.25 h-1.4 
v-1.4 h0.25 v-1.4 h-0.25 v-1.4 h0.25 v-1.4 h-0.25 v-1.4 " stroke="rgb(0,0,0)" stroke-width="0.01"/>
</g>

<g id = "box2" style="fill:none;stroke-linecap:round;stroke-linejoin:straight;">
	<path d="M 0.1 7.6 h1.4 v0.25 h1.4 v-0.25 h1.4 v0.25 h1.4 v-0.25 h1.4 
v1.4 h-0.25 v1.4 h0.25 v1.4 h-0.25 v1.4 h0.25 v1.4 
h-1.4 v-0.25 h-1.4 v0.25 h-1.4 v-0.25 h-1.4 v0.25 h-1.4 
v-1.4 h0.25 v-1.4 h-0.25 v-1.4 h0.25 v-1.4 h-0.25 v-1.4 " stroke="rgb(0,0,0)" stroke-width="0.01"/>
</g>

<g id = "box3" style="fill:none;stroke-linecap:round;stroke-linejoin:straight;">
	<path d="M 7.85 0.35 h1.15 v-0.25 h1.4 v0.25 h1.4 v-0.25 h1.4 v0.25 h1.15 
v0.95 h0.25 v1.2 h-0.25 v1.2 h0.25 v1.2 h-0.25 v0.95 
h-1.15 v0.25 h-1.4 v-0.25 h-1.4 v0.25 h-1.4 v-0.25 h-1.15 
v-0.95 h-0.25 v-1.2 h0.25 v-1.2 h-0.25 v-1.2 h0.25 v-0.95 " stroke="rgb(0,0,0)" stroke-width="0.01"/>
</g>

<g id = "box4" style="fill:none;stroke-linecap:round;stroke-linejoin:straight;">
	<path d="M 7.85 6.85 h1.15 v-0.25 h1.4 v0.25 h1.4 v-0.25 h1.4 v0.25 h1.15 
v0.95 h0.25 v1.2 h-0.25 v1.2 h0.25 v1.2 h-0.25 v0.95 
h-1.15 v0.25 h-1.4 v-0.25 h-1.4 v0.25 h-1.4 v-0.25 h-1.15 
v-0.95 h-0.25 v-1.2 h0.25 v-1.2 h-0.25 v-1.2 h0.25 v-0.95 " stroke="rgb(0,0,0)" stroke-width="0.01"/>
</g>

</svg>
