<?xml version="1.0" encoding="utf-8"?>
<!-- Generator: Adobe Illustrator 25.2.0, SVG Export Plug-In . SVG Version: 6.00 Build 0)  -->
<svg version="1.1"
	 id="레이어_1" xmlns:cc="http://creativecommons.org/ns#" xmlns:dc="http://purl.org/dc/elements/1.1/" xmlns:inkscape="http://www.inkscape.org/namespaces/inkscape" xmlns:rdf="http://www.w3.org/1999/02/22-rdf-syntax-ns#" xmlns:svg="http://www.w3.org/2000/svg"
	 xmlns="http://www.w3.org/2000/svg" xmlns:xlink="http://www.w3.org/1999/xlink" x="0px" y="0px" viewBox="0 0 1728 1296"
	 style="enable-background:new 0 0 1728 1296;" xml:space="preserve">
<style type="text/css">
	.st0{fill:none;stroke:#000000;stroke-width:1.000000e-03;stroke-linecap:round;stroke-miterlimit:288;}
</style>
<g id="box1">
	<path class="st0" d="M37.2,47.2H66v9h28.8v-9h28.8v9h28.8v-9h28.8V76h-9v28.8h9v28.8h-9v28.8h9v28.8h-28.8v-9h-28.8v9H94.8v-9H66v9
		H37.2v-28.8h9v-28.8h-9v-28.8h9V76h-9L37.2,47.2"/>
</g>
<g id="box2">
	<path class="st0" d="M37.2,227.2H66v9h28.8v-9h28.8v9h28.8v-9h28.8V256h-9v28.8h9v28.8h-9v28.8h9v28.8h-28.8v-9h-28.8v9H94.8v-9H66
		v9H37.2v-28.8h9v-28.8h-9v-28.8h9V256h-9L37.2,227.2"/>
</g>
<g id="box3">
	<path class="st0" d="M217.2,56.2H237v-9h28.8v9h28.8v-9h28.8v9h19.8V76h9v28.8h-9v28.8h9v28.8h-9v19.8h-19.8v9h-28.8v-9h-28.8v9
		H237v-9h-19.8v-19.8h-9v-28.8h9v-28.8h-9V76h9V56.2"/>
</g>
<g id="box4">
	<path class="st0" d="M217.2,236.2H237v-9h28.8v9h28.8v-9h28.8v9h19.8V256h9v28.8h-9v28.8h9v28.8h-9v19.8h-19.8v9h-28.8v-9h-28.8v9
		H237v-9h-19.8v-19.8h-9v-28.8h9v-28.8h-9V256h9V236.2"/>
</g>
<g id="box5">
	<path class="st0" d="M370.2,56.2H399v-9h28.8v9h28.8v-9h28.8v9h28.8V76h-9v28.8h9v28.8h-9v28.8h9v19.8h-28.8v9h-28.8v-9h-28.8v9
		H399v-9h-28.8v-19.8h9v-28.8h-9v-28.8h9V76h-9V56.2"/>
</g>
<g id="box6">
	<path class="st0" d="M370.2,236.2H399v-9h28.8v9h28.8v-9h28.8v9h28.8V256h-9v28.8h9v28.8h-9v28.8h9v19.8h-28.8v9h-28.8v-9h-28.8v9
		H399v-9h-28.8v-19.8h9v-28.8h-9v-28.8h9V256h-9V236.2"/>
</g>
<g id="box1_1_">
	<path class="st0" d="M37.2,418.8H66v9h28.8v-9h28.8v9h28.8v-9h28.8v28.8h-9v28.8h9v28.8h-9V534h9v28.8h-28.8v-9h-28.8v9H94.8v-9H66
		v9H37.2V534h9v-28.8h-9v-28.8h9v-28.8h-9L37.2,418.8"/>
</g>
<g id="box2_1_">
	<path class="st0" d="M37.2,598.8H66v9h28.8v-9h28.8v9h28.8v-9h28.8v28.8h-9v28.8h9v28.8h-9V714h9v28.8h-28.8v-9h-28.8v9H94.8v-9H66
		v9H37.2V714h9v-28.8h-9v-28.8h9v-28.8h-9L37.2,598.8"/>
</g>
<g id="box3_1_">
	<path class="st0" d="M217.2,427.8H237v-9h28.8v9h28.8v-9h28.8v9h19.8v19.8h9v28.8h-9v28.8h9V534h-9v19.8h-19.8v9h-28.8v-9h-28.8v9
		H237v-9h-19.8V534h-9v-28.8h9v-28.8h-9v-28.8h9V427.8"/>
</g>
<g id="box4_1_">
	<path class="st0" d="M217.2,607.8H237v-9h28.8v9h28.8v-9h28.8v9h19.8v19.8h9v28.8h-9v28.8h9V714h-9v19.8h-19.8v9h-28.8v-9h-28.8v9
		H237v-9h-19.8V714h-9v-28.8h9v-28.8h-9v-28.8h9V607.8"/>
</g>
<g id="box5_1_">
	<path class="st0" d="M370.2,427.8H399v-9h28.8v9h28.8v-9h28.8v9h28.8v19.8h-9v28.8h9v28.8h-9V534h9v19.8h-28.8v9h-28.8v-9h-28.8v9
		H399v-9h-28.8V534h9v-28.8h-9v-28.8h9v-28.8h-9V427.8"/>
</g>
<g id="box6_1_">
	<path class="st0" d="M370.2,607.8H399v-9h28.8v9h28.8v-9h28.8v9h28.8v19.8h-9v28.8h9v28.8h-9V714h9v19.8h-28.8v9h-28.8v-9h-28.8v9
		H399v-9h-28.8V714h9v-28.8h-9v-28.8h9v-28.8h-9V607.8"/>
</g>
</svg>
