<?xml version='1.0' encoding='us-ascii'?>
<svg height="18in" viewBox="0.0 0.0 24.0 18.0" width="24in" xmlns="http://www.w3.org/2000/svg" xmlns:cc="http://creativecommons.org/ns#" xmlns:dc="http://purl.org/dc/elements/1.1/" xmlns:inkscape="http://www.inkscape.org/namespaces/inkscape" xmlns:rdf="http://www.w3.org/1999/02/22-rdf-syntax-ns#" xmlns:svg="http://www.w3.org/2000/svg" xmlns:xlink="http://www.w3.org/1999/xlink">

<g id = "box1" style="fill:none;stroke-linecap:round;stroke-linejoin:straight;">
	<path d="M 0.1 0.1 h0.8 v0.12 h0.8 v-0.12 h0.8 v0.12 h0.8 v-0.12 h0.8 
v0.6 h-0.12 v0.6 h0.12 v0.6 h-0.12 v0.6 h0.12 v0.6 
h-0.8 v-0.12 h-0.8 v0.12 h-0.8 v-0.12 h-0.8 v0.12 h-0.8 
v-0.6 h0.12 v-0.6 h-0.12 v-0.6 h0.12 v-0.6 h-0.12 v-0.6 " stroke="rgb(0,0,0)" stroke-width="0.01"/>
</g>

<g id = "box2" style="fill:none;stroke-linecap:round;stroke-linejoin:straight;">
	<path d="M 0.1 3.6 h0.8 v0.12 h0.8 v-0.12 h0.8 v0.12 h0.8 v-0.12 h0.8 
v0.6 h-0.12 v0.6 h0.12 v0.6 h-0.12 v0.6 h0.12 v0.6 
h-0.8 v-0.12 h-0.8 v0.12 h-0.8 v-0.12 h-0.8 v0.12 h-0.8 
v-0.6 h0.12 v-0.6 h-0.12 v-0.6 h0.12 v-0.6 h-0.12 v-0.6 " stroke="rgb(0,0,0)" stroke-width="0.01"/>
</g>

<g id = "box3" style="fill:none;stroke-linecap:round;stroke-linejoin:straight;">
	<path d="M 4.6 0.22 h0.68 v-0.12 h0.8 v0.12 h0.8 v-0.12 h0.8 v0.12 h0.68 
v0.88 h0.12 v1.0 h-0.12 v1.0 h0.12 v1.0 h-0.12 v0.88 
h-0.68 v0.12 h-0.8 v-0.12 h-0.8 v0.12 h-0.8 v-0.12 h-0.68 
v-0.88 h-0.12 v-1.0 h0.12 v-1.0 h-0.12 v-1.0 h0.12 v-0.88 " stroke="rgb(0,0,0)" stroke-width="0.01"/>
</g>

<g id = "box4" style="fill:none;stroke-linecap:round;stroke-linejoin:straight;">
	<path d="M 4.6 5.72 h0.68 v-0.12 h0.8 v0.12 h0.8 v-0.12 h0.8 v0.12 h0.68 
v0.88 h0.12 v1.0 h-0.12 v1.0 h0.12 v1.0 h-0.12 v0.88 
h-0.68 v0.12 h-0.8 v-0.12 h-0.8 v0.12 h-0.8 v-0.12 h-0.68 
v-0.88 h-0.12 v-1.0 h0.12 v-1.0 h-0.12 v-1.0 h0.12 v-0.88 " stroke="rgb(0,0,0)" stroke-width="0.01"/>
</g>

<g id = "box5" style="fill:none;stroke-linecap:round;stroke-linejoin:straight;">
	<path d="M 8.719999999999999 0.22 h0.6 v-0.12 h0.6 v0.12 h0.6 v-0.12 h0.6 v0.12 h0.6 
v0.88 h-0.12 v1.0 h0.12 v1.0 h-0.12 v1.0 h0.12 v0.88 
h-0.6 v0.12 h-0.6 v-0.12 h-0.6 v0.12 h-0.6 v-0.12 h-0.6 
v-0.88 h0.12 v-1.0 h-0.12 v-1.0 h0.12 v-1.0 h-0.12 v-0.88 " stroke="rgb(0,0,0)" stroke-width="0.01"/>
</g>

<g id = "box6" style="fill:none;stroke-linecap:round;stroke-linejoin:straight;">
	<path d="M 8.719999999999999 5.72 h0.6 v-0.12 h0.6 v0.12 h0.6 v-0.12 h0.6 v0.12 h0.6 
v0.88 h-0.12 v1.0 h0.12 v1.0 h-0.12 v1.0 h0.12 v0.88 
h-0.6 v0.12 h-0.6 v-0.12 h-0.6 v0.12 h-0.6 v-0.12 h-0.6 
v-0.88 h0.12 v-1.0 h-0.12 v-1.0 h0.12 v-1.0 h-0.12 v-0.88 " stroke="rgb(0,0,0)" stroke-width="0.01"/>
</g>

<g id = "phone_insert" style="fill:none;stroke-linecap:round;stroke-linejoin:straight;">
	<path d="M 2.1 0.9999999999999999 h1.5 v0.75 h-3.0 v-0.75 h1.5" stroke="rgb(0,0,0)" stroke-width="0.01"/>
</g>

<g id = "phone_tab" style="fill:none;stroke-linecap:round;stroke-linejoin:straight;">
	<path d="M 0.1 7.1 h1.5 v0.1 h0.12 v0.2 h -0.12 v0.1 h-1.5 v-0.4" stroke="rgb(0,0,0)" stroke-width="0.01"/>
</g>

<g id = "phone_tab1" style="fill:none;stroke-linecap:round;stroke-linejoin:straight;">
	<path d="M 0.1 7.6 h1.5 v0.1 h0.12 v0.2 h -0.12 v0.1 h-1.5 v-0.4" stroke="rgb(0,0,0)" stroke-width="0.01"/>
</g>

<g id = "phone_tab_insert" style="fill:none;stroke-linecap:round;stroke-linejoin:straight;">
	<path d="M 5.68 2.88 h0.1 v0.12 h-0.2 v-0.12 h0.1" stroke="rgb(0,0,0)" stroke-width="0.01"/>
</g>

<g id = "phone_tab_insert" style="fill:none;stroke-linecap:round;stroke-linejoin:straight;">
	<path d="M 7.279999999999999 2.88 h0.1 v0.12 h-0.2 v-0.12 h0.1" stroke="rgb(0,0,0)" stroke-width="0.01"/>
</g>

<g id = "phone_peaker" style="fill:none;stroke-linecap:round;stroke-linejoin:straight;">
	<path d="M 6.4799999999999995 1.1 h1.5 v0.75 h-3.0 v-0.75 h1.5" stroke="rgb(0,0,0)" stroke-width="0.01"/>
</g>

</svg>
