<?xml version="1.0" encoding="utf-8"?>
<!-- Generator: Adobe Illustrator 25.2.0, SVG Export Plug-In . SVG Version: 6.00 Build 0)  -->
<svg version="1.1"
	 id="레이어_1" xmlns:cc="http://creativecommons.org/ns#" xmlns:dc="http://purl.org/dc/elements/1.1/" xmlns:inkscape="http://www.inkscape.org/namespaces/inkscape" xmlns:rdf="http://www.w3.org/1999/02/22-rdf-syntax-ns#" xmlns:svg="http://www.w3.org/2000/svg"
	 xmlns="http://www.w3.org/2000/svg" xmlns:xlink="http://www.w3.org/1999/xlink" x="0px" y="0px" viewBox="0 0 1728 1296"
	 style="enable-background:new 0 0 1728 1296;" xml:space="preserve">
<style type="text/css">
	.st0{fill:none;stroke:#000000;stroke-width:1.000000e-03;stroke-linecap:round;stroke-miterlimit:288;}
</style>
<g id="box1">
	<path class="st0" d="M7.2,7.2H36v9h28.8v-9h28.8v9h28.8v-9h28.8V36h-9v28.8h9v28.8h-9v28.8h9v28.8h-28.8v-9H93.6v9H64.8v-9H36v9
		H7.2v-28.8h9V93.6h-9V64.8h9V36h-9L7.2,7.2"/>
</g>
<g id="box2">
	<path class="st0" d="M7.2,187.2H36v9h28.8v-9h28.8v9h28.8v-9h28.8V216h-9v28.8h9v28.8h-9v28.8h9v28.8h-28.8v-9H93.6v9H64.8v-9H36v9
		H7.2v-28.8h9v-28.8h-9v-28.8h9V216h-9L7.2,187.2"/>
</g>
<g id="box3">
	<path class="st0" d="M196.2,16.2H216v-9h28.8v9h28.8v-9h28.8v9h19.8V36h9v28.8h-9v28.8h9v28.8h-9v19.8h-19.8v9h-28.8v-9h-28.8v9
		H216v-9h-19.8v-19.8h-9V93.6h9V64.8h-9V36h9V16.2"/>
</g>
<g id="box4">
	<path class="st0" d="M196.2,196.2H216v-9h28.8v9h28.8v-9h28.8v9h19.8V216h9v28.8h-9v28.8h9v28.8h-9v19.8h-19.8v9h-28.8v-9h-28.8v9
		H216v-9h-19.8v-19.8h-9v-28.8h9v-28.8h-9V216h9V196.2"/>
</g>
<g id="box5">
	<path class="st0" d="M340.2,16.2H369v-9h28.8v9h28.8v-9h28.8v9h28.8V36h-9v28.8h9v28.8h-9v28.8h9v19.8h-28.8v9h-28.8v-9h-28.8v9
		H369v-9h-28.8v-19.8h9V93.6h-9V64.8h9V36h-9V16.2"/>
</g>
<g id="box6">
	<path class="st0" d="M340.2,196.2H369v-9h28.8v9h28.8v-9h28.8v9h28.8V216h-9v28.8h9v28.8h-9v28.8h9v19.8h-28.8v9h-28.8v-9h-28.8v9
		H369v-9h-28.8v-19.8h9v-28.8h-9v-28.8h9V216h-9V196.2"/>
</g>
</svg>
