<?xml version='1.0' encoding='us-ascii'?>
<svg height="18in" viewBox="0.0 0.0 24.0 18.0" width="24in" xmlns="http://www.w3.org/2000/svg" xmlns:cc="http://creativecommons.org/ns#" xmlns:dc="http://purl.org/dc/elements/1.1/" xmlns:inkscape="http://www.inkscape.org/namespaces/inkscape" xmlns:rdf="http://www.w3.org/1999/02/22-rdf-syntax-ns#" xmlns:svg="http://www.w3.org/2000/svg" xmlns:xlink="http://www.w3.org/1999/xlink">

<g id = "box1" style="fill:none;stroke-linecap:round;stroke-linejoin:straight;">
	<path d="M 0.1 0.1 h0.6 v0.125 h0.6 v-0.125 h0.6 v0.125 h0.6 v-0.125 h0.6 
v0.8 h-0.125 v0.8 h0.125 v0.8 h-0.125 v0.8 h0.125 v0.8 
h-0.6 v-0.125 h-0.6 v0.125 h-0.6 v-0.125 h-0.6 v0.125 h-0.6 
v-0.8 h0.125 v-0.8 h-0.125 v-0.8 h0.125 v-0.8 h-0.125 v-0.8 " stroke="rgb(0,0,0)" stroke-width="0.01"/>
</g>

<g id = "box2" style="fill:none;stroke-linecap:round;stroke-linejoin:straight;">
	<path d="M 0.1 4.6 h0.6 v0.125 h0.6 v-0.125 h0.6 v0.125 h0.6 v-0.125 h0.6 
v0.8 h-0.125 v0.8 h0.125 v0.8 h-0.125 v0.8 h0.125 v0.8 
h-0.6 v-0.125 h-0.6 v0.125 h-0.6 v-0.125 h-0.6 v0.125 h-0.6 
v-0.8 h0.125 v-0.8 h-0.125 v-0.8 h0.125 v-0.8 h-0.125 v-0.8 " stroke="rgb(0,0,0)" stroke-width="0.01"/>
</g>

<g id = "box3" style="fill:none;stroke-linecap:round;stroke-linejoin:straight;">
	<path d="M 3.725 0.225 h0.475 v-0.125 h0.6 v0.125 h0.6 v-0.125 h0.6 v0.125 h0.475 
v0.875 h0.125 v1.0 h-0.125 v1.0 h0.125 v1.0 h-0.125 v0.875 
h-0.475 v0.125 h-0.6 v-0.125 h-0.6 v0.125 h-0.6 v-0.125 h-0.475 
v-0.875 h-0.125 v-1.0 h0.125 v-1.0 h-0.125 v-1.0 h0.125 v-0.875 " stroke="rgb(0,0,0)" stroke-width="0.01"/>
</g>

<g id = "box4" style="fill:none;stroke-linecap:round;stroke-linejoin:straight;">
	<path d="M 3.725 5.725 h0.475 v-0.125 h0.6 v0.125 h0.6 v-0.125 h0.6 v0.125 h0.475 
v0.875 h0.125 v1.0 h-0.125 v1.0 h0.125 v1.0 h-0.125 v0.875 
h-0.475 v0.125 h-0.6 v-0.125 h-0.6 v0.125 h-0.6 v-0.125 h-0.475 
v-0.875 h-0.125 v-1.0 h0.125 v-1.0 h-0.125 v-1.0 h0.125 v-0.875 " stroke="rgb(0,0,0)" stroke-width="0.01"/>
</g>

<g id = "box5" style="fill:none;stroke-linecap:round;stroke-linejoin:straight;">
	<path d="M 6.725 0.225 h0.8 v-0.125 h0.8 v0.125 h0.8 v-0.125 h0.8 v0.125 h0.8 
v0.875 h-0.125 v1.0 h0.125 v1.0 h-0.125 v1.0 h0.125 v0.875 
h-0.8 v0.125 h-0.8 v-0.125 h-0.8 v0.125 h-0.8 v-0.125 h-0.8 
v-0.875 h0.125 v-1.0 h-0.125 v-1.0 h0.125 v-1.0 h-0.125 v-0.875 " stroke="rgb(0,0,0)" stroke-width="0.01"/>
</g>

<g id = "box6" style="fill:none;stroke-linecap:round;stroke-linejoin:straight;">
	<path d="M 6.725 5.725 h0.8 v-0.125 h0.8 v0.125 h0.8 v-0.125 h0.8 v0.125 h0.8 
v0.875 h-0.125 v1.0 h0.125 v1.0 h-0.125 v1.0 h0.125 v0.875 
h-0.8 v0.125 h-0.8 v-0.125 h-0.8 v0.125 h-0.8 v-0.125 h-0.8 
v-0.875 h0.125 v-1.0 h-0.125 v-1.0 h0.125 v-1.0 h-0.125 v-0.875 " stroke="rgb(0,0,0)" stroke-width="0.01"/>
</g>

</svg>
