<?xml version='1.0' encoding='us-ascii'?>
<svg height="18in" viewBox="0.0 0.0 24.0 18.0" width="24in" xmlns="http://www.w3.org/2000/svg" xmlns:cc="http://creativecommons.org/ns#" xmlns:dc="http://purl.org/dc/elements/1.1/" xmlns:inkscape="http://www.inkscape.org/namespaces/inkscape" xmlns:rdf="http://www.w3.org/1999/02/22-rdf-syntax-ns#" xmlns:svg="http://www.w3.org/2000/svg" xmlns:xlink="http://www.w3.org/1999/xlink">

<g id = "box1" style="fill:none;stroke-linecap:round;stroke-linejoin:straight;">
	<path d="M 0.1 0.1 h1.4 v0.12 h1.4 v-0.12 h1.4 v0.12 h1.4 v-0.12 h1.4 
v1.2 h-0.12 v1.2 h0.12 v1.2 h-0.12 v1.2 h0.12 v1.2 
h-1.4 v-0.12 h-1.4 v0.12 h-1.4 v-0.12 h-1.4 v0.12 h-1.4 
v-1.2 h0.12 v-1.2 h-0.12 v-1.2 h0.12 v-1.2 h-0.12 v-1.2 " stroke="rgb(0,0,0)" stroke-width="0.01"/>
</g>

<g id = "box2" style="fill:none;stroke-linecap:round;stroke-linejoin:straight;">
	<path d="M 0.1 6.6 h1.4 v0.12 h1.4 v-0.12 h1.4 v0.12 h1.4 v-0.12 h1.4 
v1.2 h-0.12 v1.2 h0.12 v1.2 h-0.12 v1.2 h0.12 v1.2 
h-1.4 v-0.12 h-1.4 v0.12 h-1.4 v-0.12 h-1.4 v0.12 h-1.4 
v-1.2 h0.12 v-1.2 h-0.12 v-1.2 h0.12 v-1.2 h-0.12 v-1.2 " stroke="rgb(0,0,0)" stroke-width="0.01"/>
</g>

<g id = "box3" style="fill:none;stroke-linecap:round;stroke-linejoin:straight;">
	<path d="M 7.6 0.22 h1.2799999999999998 v-0.12 h1.4 v0.12 h1.4 v-0.12 h1.4 v0.12 h1.2799999999999998 
v1.48 h0.12 v1.6 h-0.12 v1.6 h0.12 v1.6 h-0.12 v1.48 
h-1.2799999999999998 v0.12 h-1.4 v-0.12 h-1.4 v0.12 h-1.4 v-0.12 h-1.2799999999999998 
v-1.48 h-0.12 v-1.6 h0.12 v-1.6 h-0.12 v-1.6 h0.12 v-1.48 " stroke="rgb(0,0,0)" stroke-width="0.01"/>
</g>

<g id = "box4" style="fill:none;stroke-linecap:round;stroke-linejoin:straight;">
	<path d="M 7.6 8.72 h1.2799999999999998 v-0.12 h1.4 v0.12 h1.4 v-0.12 h1.4 v0.12 h1.2799999999999998 
v1.48 h0.12 v1.6 h-0.12 v1.6 h0.12 v1.6 h-0.12 v1.48 
h-1.2799999999999998 v0.12 h-1.4 v-0.12 h-1.4 v0.12 h-1.4 v-0.12 h-1.2799999999999998 
v-1.48 h-0.12 v-1.6 h0.12 v-1.6 h-0.12 v-1.6 h0.12 v-1.48 " stroke="rgb(0,0,0)" stroke-width="0.01"/>
</g>

<g id = "box5" style="fill:none;stroke-linecap:round;stroke-linejoin:straight;">
	<path d="M 14.719999999999999 0.22 h1.2 v-0.12 h1.2 v0.12 h1.2 v-0.12 h1.2 v0.12 h1.2 
v1.48 h-0.12 v1.6 h0.12 v1.6 h-0.12 v1.6 h0.12 v1.48 
h-1.2 v0.12 h-1.2 v-0.12 h-1.2 v0.12 h-1.2 v-0.12 h-1.2 
v-1.48 h0.12 v-1.6 h-0.12 v-1.6 h0.12 v-1.6 h-0.12 v-1.48 " stroke="rgb(0,0,0)" stroke-width="0.01"/>
</g>

<g id = "box6" style="fill:none;stroke-linecap:round;stroke-linejoin:straight;">
	<path d="M 14.719999999999999 8.72 h1.2 v-0.12 h1.2 v0.12 h1.2 v-0.12 h1.2 v0.12 h1.2 
v1.48 h-0.12 v1.6 h0.12 v1.6 h-0.12 v1.6 h0.12 v1.48 
h-1.2 v0.12 h-1.2 v-0.12 h-1.2 v0.12 h-1.2 v-0.12 h-1.2 
v-1.48 h0.12 v-1.6 h-0.12 v-1.6 h0.12 v-1.6 h-0.12 v-1.48 " stroke="rgb(0,0,0)" stroke-width="0.01"/>
</g>

</svg>
