<?xml version='1.0' encoding='us-ascii'?>
<svg height="18in" viewBox="0.0 0.0 24.0 18.0" width="24in" xmlns="http://www.w3.org/2000/svg" xmlns:cc="http://creativecommons.org/ns#" xmlns:dc="http://purl.org/dc/elements/1.1/" xmlns:inkscape="http://www.inkscape.org/namespaces/inkscape" xmlns:rdf="http://www.w3.org/1999/02/22-rdf-syntax-ns#" xmlns:svg="http://www.w3.org/2000/svg" xmlns:xlink="http://www.w3.org/1999/xlink">

<g id = "box1" style="fill:none;stroke-linecap:round;stroke-linejoin:straight;">
	<path d="M 0.1 0.1 h1.0 v0.125 h1.0 v-0.125 h1.0 v0.125 h1.0 v-0.125 h1.0 
v0.8 h-0.125 v0.8 h0.125 v0.8 h-0.125 v0.8 h0.125 v0.8 
h-1.0 v-0.125 h-1.0 v0.125 h-1.0 v-0.125 h-1.0 v0.125 h-1.0 
v-0.8 h0.125 v-0.8 h-0.125 v-0.8 h0.125 v-0.8 h-0.125 v-0.8 " stroke="rgb(0,0,0)" stroke-width="0.01"/>
</g>

<g id = "box2" style="fill:none;stroke-linecap:round;stroke-linejoin:straight;">
	<path d="M 0.1 4.6 h1.0 v0.125 h1.0 v-0.125 h1.0 v0.125 h1.0 v-0.125 h1.0 
v0.8 h-0.125 v0.8 h0.125 v0.8 h-0.125 v0.8 h0.125 v0.8 
h-1.0 v-0.125 h-1.0 v0.125 h-1.0 v-0.125 h-1.0 v0.125 h-1.0 
v-0.8 h0.125 v-0.8 h-0.125 v-0.8 h0.125 v-0.8 h-0.125 v-0.8 " stroke="rgb(0,0,0)" stroke-width="0.01"/>
</g>

<g id = "box3" style="fill:none;stroke-linecap:round;stroke-linejoin:straight;">
	<path d="M 5.725 0.225 h0.875 v-0.125 h1.0 v0.125 h1.0 v-0.125 h1.0 v0.125 h0.875 
v0.675 h0.125 v0.8 h-0.125 v0.8 h0.125 v0.8 h-0.125 v0.675 
h-0.875 v0.125 h-1.0 v-0.125 h-1.0 v0.125 h-1.0 v-0.125 h-0.875 
v-0.675 h-0.125 v-0.8 h0.125 v-0.8 h-0.125 v-0.8 h0.125 v-0.675 " stroke="rgb(0,0,0)" stroke-width="0.01"/>
</g>

<g id = "box4" style="fill:none;stroke-linecap:round;stroke-linejoin:straight;">
	<path d="M 5.725 4.725 h0.875 v-0.125 h1.0 v0.125 h1.0 v-0.125 h1.0 v0.125 h0.875 
v0.675 h0.125 v0.8 h-0.125 v0.8 h0.125 v0.8 h-0.125 v0.675 
h-0.875 v0.125 h-1.0 v-0.125 h-1.0 v0.125 h-1.0 v-0.125 h-0.875 
v-0.675 h-0.125 v-0.8 h0.125 v-0.8 h-0.125 v-0.8 h0.125 v-0.675 " stroke="rgb(0,0,0)" stroke-width="0.01"/>
</g>

<g id = "box5" style="fill:none;stroke-linecap:round;stroke-linejoin:straight;">
	<path d="M 10.725 0.225 h0.8 v-0.125 h0.8 v0.125 h0.8 v-0.125 h0.8 v0.125 h0.8 
v0.675 h-0.125 v0.8 h0.125 v0.8 h-0.125 v0.8 h0.125 v0.675 
h-0.8 v0.125 h-0.8 v-0.125 h-0.8 v0.125 h-0.8 v-0.125 h-0.8 
v-0.675 h0.125 v-0.8 h-0.125 v-0.8 h0.125 v-0.8 h-0.125 v-0.675 " stroke="rgb(0,0,0)" stroke-width="0.01"/>
</g>

<g id = "box6" style="fill:none;stroke-linecap:round;stroke-linejoin:straight;">
	<path d="M 10.725 4.725 h0.8 v-0.125 h0.8 v0.125 h0.8 v-0.125 h0.8 v0.125 h0.8 
v0.675 h-0.125 v0.8 h0.125 v0.8 h-0.125 v0.8 h0.125 v0.675 
h-0.8 v0.125 h-0.8 v-0.125 h-0.8 v0.125 h-0.8 v-0.125 h-0.8 
v-0.675 h0.125 v-0.8 h-0.125 v-0.8 h0.125 v-0.8 h-0.125 v-0.675 " stroke="rgb(0,0,0)" stroke-width="0.01"/>
</g>

</svg>
